<svg xmlns="http://www.w3.org/2000/svg" xmlns:xlink="http://www.w3.org/1999/xlink" width="500" zoomAndPan="magnify" viewBox="0 0 375 374.999991" height="500" preserveAspectRatio="xMidYMid meet" version="1.2"><defs><clipPath id="963aeaff1f"><path d="M 0 0.359375 L 375 0.359375 L 375 372 L 0 372 Z M 0 0.359375 "/></clipPath><clipPath id="7873a27406"><rect x="0" width="375" y="0" height="372"/></clipPath></defs><g id="e698e8b05d"><g transform="matrix(1,0,0,1,0,3)"><g clip-path="url(#7873a27406)"><path style=" stroke:none;fill-rule:nonzero;fill:#100f0d;fill-opacity:1;" d="M 348.289062 155.019531 C 357.382812 149.96875 363.472656 143 370.726562 135.804688 C 377.980469 128.613281 379.347656 117.761719 378.476562 107.917969 C 377.777344 99.964844 373.261719 89.367188 368.851562 82.546875 C 363.6875 74.566406 358.367188 69.9375 350.84375 63.804688 C 337.382812 52.847656 318.070312 49.324219 300.527344 52.460938 C 282.988281 55.597656 267.171875 64.832031 254.433594 76.519531 C 251.449219 79.257812 248.445312 82.484375 248.21875 86.386719 C 247.992188 90.289062 252.1875 94.433594 256.054688 92.941406 C 261.0625 79.878906 259.152344 54.820312 249.648438 44.15625 C 240.144531 33.496094 224.324219 24.945312 204.246094 21.457031 C 153.992188 12.71875 111.699219 52.015625 111.351562 92.960938 C 111.304688 98.859375 112.25 107.519531 118.273438 105.832031 C 120.171875 103.796875 117.191406 100.964844 114.578125 99.8125 C 90.550781 89.214844 63.335938 78.484375 38.355469 86.9375 C 13.375 95.394531 -8.570312 123.691406 -13.8125 148.011719 C -19.058594 172.332031 -7.222656 199.707031 15.96875 211.8125 C 20.535156 214.191406 26.550781 215.882812 30.699219 212.914062 C 26.875 206.722656 16.738281 207.832031 10.179688 211.53125 C -1.9375 218.347656 -12.777344 231.355469 -16.378906 244.128906 C -19.980469 256.90625 -21.050781 265.957031 -20.113281 280.800781 C -19.671875 287.839844 -16.738281 297.265625 -13.132812 303.464844 C -9.816406 309.15625 -5.210938 316.351562 0.464844 320.085938 C 12.441406 327.976562 26.007812 332.753906 40.167969 336.292969 C 54.324219 339.835938 70.953125 338.015625 81.207031 328.234375 C 84.121094 325.453125 86.390625 320.8125 83.628906 317.898438 C 79.410156 313.453125 72.160156 319.820312 70.484375 325.542969 C 64.460938 346.046875 73.019531 369.265625 90.34375 383.0625 C 107.675781 396.859375 132.664062 401.203125 154.609375 395.535156 C 164.894531 392.882812 174.992188 387.828125 180.6875 379.402344 C 186.382812 370.980469 189.355469 349.746094 178.65625 351.878906 C 173.152344 356.339844 172.097656 364.277344 174.503906 370.699219 C 176.914062 377.113281 182.140625 382.253906 187.691406 386.65625 C 209.75 404.164062 241.5 412.984375 268.476562 403.175781 C 295.453125 393.371094 312.914062 361.699219 300.238281 337.398438 C 299.746094 336.449219 299.199219 335.503906 298.402344 334.757812 C 294.441406 331.03125 286.816406 335.210938 286.515625 340.453125 C 286.210938 345.695312 290.703125 350.171875 295.609375 352.738281 C 307.800781 359.113281 323.453125 357.441406 335.726562 351.207031 C 347.992188 344.976562 357.398438 334.785156 365.488281 324.15625 C 373.785156 313.253906 381.210938 301.082031 382.078125 287.734375 C 382.941406 274.386719 375.484375 259.789062 361.90625 255.550781 C 357.890625 254.296875 352.648438 254.375 350.355469 257.695312 C 347.761719 261.445312 351.253906 266.828125 355.886719 267.929688 C 360.511719 269.027344 365.355469 267.066406 369.300781 264.550781 C 383.671875 255.398438 391.097656 238.773438 391.886719 222.546875 C 392.671875 206.316406 387.628906 190.328125 381.359375 175.175781 C 375.023438 159.855469 364.941406 143.152344 347.636719 140.207031 C 342.503906 139.335938 338.3125 143.605469 336.132812 148.03125 C 333.949219 152.460938 344.800781 158.640625 348.289062 155.019531 "/><g clip-rule="nonzero" clip-path="url(#963aeaff1f)"><path style=" stroke:none;fill-rule:nonzero;fill:#100f0d;fill-opacity:1;" d="M 366.378906 140.59375 C 373.039062 136.753906 378.667969 131.71875 384.070312 126.289062 C 389.101562 121.238281 393.851562 116.617188 396.160156 109.691406 C 400.65625 96.214844 397.191406 81.710938 390.816406 69.496094 C 377.339844 43.667969 348.78125 28.785156 320.023438 32.605469 C 304.953125 34.609375 290.742188 41.167969 278.601562 50.191406 C 273.289062 54.144531 266.59375 58.726562 263.605469 64.839844 C 261.222656 69.714844 262.398438 75.84375 267.636719 78.347656 C 279.425781 83.984375 278.410156 60.480469 278.007812 54.296875 C 277.273438 43.003906 274.359375 31.457031 266.144531 23.277344 C 246.808594 4.015625 214.878906 -3.03125 188.707031 2.832031 C 164.328125 8.289062 142.472656 25.285156 131.964844 48.066406 C 127.195312 58.417969 124.121094 70.71875 125.78125 82.164062 C 126.34375 86.0625 127.820312 90.953125 132.273438 91.851562 C 137.078125 92.828125 139.777344 88.371094 137.132812 84.40625 C 135.5 81.953125 132.800781 80.8125 130.199219 79.679688 C 126.367188 78.003906 122.519531 76.367188 118.636719 74.816406 C 110.429688 71.527344 102.039062 68.613281 93.390625 66.71875 C 78.113281 63.363281 62.25 63.527344 47.886719 70.253906 C 24.230469 81.328125 4.066406 107.398438 -0.175781 133.273438 C -4.3125 158.511719 8.644531 186.332031 31.996094 197.703125 C 37.351562 200.308594 43.398438 201.691406 48.789062 198.492188 C 49.949219 197.804688 50.605469 196.011719 49.75 194.824219 C 44.648438 187.738281 35.214844 188.117188 27.871094 191.347656 C 18.003906 195.6875 9.539062 204.449219 3.839844 213.425781 C -7.238281 230.867188 -9.707031 257.660156 -3.414062 277.171875 C -0.339844 286.714844 5.285156 296.820312 12.941406 303.449219 C 21.59375 310.9375 33.695312 315.402344 44.457031 318.835938 C 55.160156 322.25 66.058594 324.925781 77.347656 323.4375 C 86.5 322.234375 98 318.15625 102.792969 309.582031 C 106.527344 302.90625 101.554688 294.640625 93.6875 297.699219 C 84.925781 301.105469 83.019531 311.953125 82.664062 320.1875 C 81.761719 341.050781 93.414062 361.089844 110.753906 372.242188 C 129.027344 384.003906 152.8125 386.828125 173.605469 380.972656 C 191.292969 375.988281 206.488281 362.710938 205.199219 342.96875 C 204.855469 337.730469 201.996094 331.144531 195.539062 332.4375 C 187.484375 334.042969 186.421875 347.207031 188.222656 353.371094 C 191.238281 363.675781 200.78125 371.070312 209.324219 376.785156 C 218.628906 383.023438 229.101562 387.714844 239.964844 390.457031 C 260.113281 395.542969 283.09375 393.980469 300.261719 381.375 C 314.550781 370.875 325.125 353.324219 323.761719 335.148438 C 323.265625 328.503906 320.960938 315.460938 312.910156 314.0625 C 304.742188 312.640625 298.617188 321.160156 301.398438 328.523438 C 304.839844 337.628906 316.386719 341.542969 325.175781 342.46875 C 336.109375 343.613281 347.246094 340.667969 356.707031 335.214844 C 366.777344 329.410156 375.003906 320.90625 382.15625 311.855469 C 389.375 302.710938 396.28125 292.792969 399.613281 281.496094 C 404.753906 264.039062 398.019531 240.441406 378.117188 235.894531 C 370.964844 234.261719 360.523438 238.171875 364.28125 247.242188 C 368.3125 256.976562 380.308594 254.582031 387.390625 250.132812 C 406.082031 238.394531 413.203125 215.175781 410.917969 194.136719 C 409.542969 181.511719 405.523438 169.40625 400.679688 157.722656 C 396.988281 148.800781 392.480469 140.03125 385.882812 132.875 C 380.214844 126.730469 370.578125 119.691406 361.675781 120.796875 C 355.492188 121.558594 346.949219 129.863281 351.167969 136.300781 C 354.328125 141.117188 362.125 144.0625 366.921875 140.175781 C 369.605469 138.003906 365.785156 134.230469 363.128906 136.386719 C 361.328125 137.84375 356.347656 135.054688 355.632812 133.257812 C 353.980469 129.09375 361.992188 125.71875 365.046875 126.328125 C 372.210938 127.742188 378.300781 132.28125 383.003906 137.6875 C 393.386719 149.625 399.367188 166.460938 403.199219 181.550781 C 407.429688 198.21875 407.4375 216.292969 398.285156 231.378906 C 394.128906 238.230469 387.472656 245.484375 379.632812 248.035156 C 377.15625 248.839844 373.945312 249.347656 371.59375 247.886719 C 369.160156 246.378906 367.953125 243.304688 370.734375 241.472656 C 374 239.324219 379.425781 241.671875 382.390625 243.347656 C 397.632812 251.972656 398.527344 271.578125 392.257812 286.023438 C 385.675781 301.183594 373.699219 316.3125 360.492188 326.257812 C 347.332031 336.175781 326.703125 342.492188 311.730469 332.523438 C 308.273438 330.21875 303.582031 325.144531 307.410156 321.160156 C 312.113281 316.269531 315.230469 322.523438 316.648438 326.6875 C 318.792969 332.972656 319.003906 339.761719 317.65625 346.242188 C 314.839844 359.738281 305.78125 371.722656 294.207031 379.03125 C 280.722656 387.539062 263.816406 389.363281 248.3125 386.746094 C 232.328125 384.050781 216.820312 376.925781 204.425781 366.464844 C 198.09375 361.125 191.5 353.789062 192.917969 344.859375 C 193.238281 342.835938 195.167969 336.09375 198.265625 338.179688 C 199.898438 339.273438 199.871094 342.796875 199.875 344.445312 C 199.992188 379.617188 151.425781 383.015625 126.785156 374.191406 C 111.59375 368.75 98.828125 357.703125 92.324219 342.808594 C 89.230469 335.71875 87.691406 327.917969 88.023438 320.1875 C 88.175781 316.679688 88.597656 312.84375 89.804688 309.519531 C 90.457031 307.714844 91.429688 306.082031 92.792969 304.722656 C 93.503906 304.011719 94.390625 302.976562 95.4375 302.816406 C 97.929688 302.429688 99.382812 304.453125 98.164062 306.878906 C 94.722656 313.75 84.402344 317.015625 77.425781 318.058594 C 68.953125 319.328125 60.714844 317.898438 52.550781 315.640625 C 43.917969 313.253906 35.417969 310.296875 27.441406 306.207031 C 19.203125 301.976562 13.210938 297.054688 8.226562 289.191406 C -9.089844 261.871094 -2.894531 218.402344 24.289062 199.601562 C 29.425781 196.046875 40.242188 190.746094 45.125 197.527344 C 45.445312 196.308594 45.765625 195.082031 46.085938 193.863281 C 38.726562 198.226562 28.164062 189.777344 22.921875 185 C 17.386719 179.953125 12.941406 173.8125 9.761719 167.035156 C 3.195312 153.023438 2.878906 137.339844 8.167969 122.890625 C 13.621094 108.007812 23.609375 94.386719 35.808594 84.324219 C 50.136719 72.507812 67.410156 67.90625 85.785156 70.722656 C 95.398438 72.195312 104.730469 75.175781 113.789062 78.640625 C 118.40625 80.410156 122.960938 82.332031 127.492188 84.304688 C 128.089844 84.566406 132.273438 86.808594 132.625 86.152344 C 132.5 86.378906 130.9375 80.4375 130.929688 80.351562 C 129.570312 66.9375 134.371094 52.933594 141.539062 41.765625 C 158.066406 16.015625 189.371094 2.292969 219.5 7.175781 C 235.808594 9.816406 255.671875 16.804688 265.71875 30.886719 C 274.097656 42.613281 275.007812 62.242188 270.207031 75.488281 C 270.828125 74.867188 271.457031 74.238281 272.078125 73.617188 C 268.242188 74.5 267.234375 69.363281 268.550781 66.890625 C 269.390625 65.308594 270.695312 63.980469 271.953125 62.730469 C 274.828125 59.863281 278.058594 57.246094 281.3125 54.820312 C 287.023438 50.558594 293.175781 46.859375 299.683594 43.949219 C 313.25 37.882812 328.621094 35.570312 343.242188 38.695312 C 369.277344 44.261719 393.632812 70.453125 392.734375 97.925781 C 392.445312 106.753906 389.34375 113.355469 383.1875 119.558594 C 377.140625 125.65625 371.167969 131.640625 363.675781 135.964844 C 360.683594 137.6875 363.378906 142.324219 366.378906 140.59375 "/></g><path style=" stroke:none;fill-rule:nonzero;fill:#100f0d;fill-opacity:1;" d="M 290.847656 62.925781 C 309.363281 47.28125 337.582031 41.601562 360.0625 51.824219 C 370.757812 56.6875 379.964844 65.527344 381.253906 77.722656 C 382.769531 92.070312 374.710938 105.035156 367.503906 116.722656 C 366.585938 118.214844 368.929688 119.574219 369.84375 118.089844 C 377.621094 105.484375 386.046875 91.441406 383.734375 75.980469 C 381.96875 64.144531 373.164062 55.21875 362.753906 50.109375 C 338.960938 38.421875 308.765625 44.253906 288.929688 61.007812 C 287.597656 62.136719 289.523438 64.042969 290.847656 62.925781 "/><path style=" stroke:none;fill-rule:nonzero;fill:#100f0d;fill-opacity:1;" d="M 139.84375 71.230469 C 139.578125 42.824219 170.777344 22.894531 195.800781 18.089844 C 221.074219 13.230469 246.523438 24.902344 263.835938 42.941406 C 265.046875 44.203125 266.960938 42.285156 265.75 41.027344 C 247.304688 21.804688 220.09375 9.9375 193.34375 15.832031 C 167.660156 21.488281 136.859375 42.074219 137.128906 71.230469 C 137.144531 72.976562 139.859375 72.980469 139.84375 71.230469 "/><path style=" stroke:none;fill-rule:nonzero;fill:#100f0d;fill-opacity:1;" d="M 30.757812 178.695312 C 13.140625 158.265625 18.117188 125.667969 34.585938 105.902344 C 42.070312 96.902344 52.238281 89.902344 63.699219 87.480469 C 77.40625 84.578125 91.539062 86.265625 105.203125 88.542969 C 106.910156 88.828125 107.640625 86.214844 105.921875 85.929688 C 91.460938 83.519531 76.582031 81.796875 62.101562 85.050781 C 50.058594 87.753906 38.980469 95.703125 31.46875 105.488281 C 15.171875 126.707031 10.476562 159.320312 28.839844 180.613281 C 29.984375 181.933594 31.894531 180.011719 30.757812 178.695312 "/><path style=" stroke:none;fill-rule:nonzero;fill:#100f0d;fill-opacity:1;" d="M 23.417969 206.707031 C 13.816406 215.917969 7.539062 228.207031 6.621094 241.574219 C 6.121094 248.828125 7.472656 256.023438 9.167969 263.046875 C 10.753906 269.628906 12.671875 276.265625 16.03125 282.195312 C 27.65625 302.703125 52.96875 312.90625 75.746094 309.195312 C 77.460938 308.917969 76.734375 306.304688 75.023438 306.585938 C 53.449219 310.097656 29.351562 300.207031 18.375 280.832031 C 12.375 270.234375 8.804688 255.289062 9.25 243.15625 C 9.734375 229.929688 15.863281 217.703125 25.335938 208.625 C 26.597656 207.414062 24.679688 205.496094 23.417969 206.707031 "/><path style=" stroke:none;fill-rule:nonzero;fill:#100f0d;fill-opacity:1;" d="M 96.625 322.179688 C 92.371094 343.140625 108.324219 360.65625 126.726562 367.847656 C 144.847656 374.925781 171.941406 377.761719 187.601562 363.832031 C 188.910156 362.671875 186.988281 360.761719 185.683594 361.914062 C 171.554688 374.488281 147.175781 371.960938 130.558594 366.363281 C 112.40625 360.246094 95.019531 343.695312 99.238281 322.898438 C 99.582031 321.195312 96.96875 320.464844 96.625 322.179688 "/><path style=" stroke:none;fill-rule:nonzero;fill:#100f0d;fill-opacity:1;" d="M 209.582031 362.152344 C 220.945312 380.363281 244.285156 382.421875 263.726562 382.277344 C 273.9375 382.203125 282.550781 380.964844 290.699219 374.371094 C 298.023438 368.445312 306.390625 360.738281 309.417969 351.566406 C 309.96875 349.910156 307.351562 349.195312 306.804688 350.847656 C 304.039062 359.222656 296.078125 366.425781 289.417969 371.941406 C 281.160156 378.773438 272.285156 379.566406 261.90625 379.578125 C 244.007812 379.597656 222.375 377.535156 211.921875 360.785156 C 211 359.308594 208.652344 360.667969 209.582031 362.152344 "/><path style=" stroke:none;fill-rule:nonzero;fill:#100f0d;fill-opacity:1;" d="M 383.988281 260.242188 C 390.285156 274.5625 380.742188 291.042969 372.015625 302.222656 C 363.117188 313.617188 349.984375 319.488281 337.050781 325.089844 C 335.457031 325.78125 336.832031 328.117188 338.421875 327.429688 C 353.304688 320.984375 367.195312 314.128906 376.667969 300.449219 C 384.90625 288.554688 392.660156 273.273438 386.328125 258.871094 C 385.628906 257.28125 383.292969 258.65625 383.988281 260.242188 "/><path style=" stroke:none;fill-rule:nonzero;fill:#100f0d;fill-opacity:1;" d="M 373.164062 145.144531 C 381.914062 155.789062 390.371094 167.246094 392.421875 181.230469 C 394.574219 195.925781 390.148438 210.65625 384.199219 223.957031 C 383.492188 225.53125 385.824219 226.914062 386.535156 225.320312 C 392.746094 211.457031 397.339844 196.199219 395.113281 180.867188 C 392.992188 166.273438 384.210938 154.335938 375.082031 143.226562 C 373.976562 141.882812 372.066406 143.804688 373.164062 145.144531 "/><g style="fill:#ffffff;fill-opacity:1;"><g transform="translate(38.638208, 313.57683)"><path style="stroke:none" d="M 43.484375 -21.6875 C 35.816406 -17.632812 28.4375 -15.488281 21.34375 -15.25 C 14.25 -15.007812 7.785156 -16.65625 1.953125 -20.1875 C -3.878906 -23.71875 -8.71875 -29.117188 -12.5625 -36.390625 C -15.382812 -41.734375 -17.015625 -47.171875 -17.453125 -52.703125 C -17.898438 -58.234375 -17.226562 -63.628906 -15.4375 -68.890625 C -13.644531 -74.148438 -10.78125 -78.988281 -6.84375 -83.40625 C -2.90625 -87.832031 2 -91.597656 7.875 -94.703125 C 10.75 -96.222656 13.800781 -97.515625 17.03125 -98.578125 C 20.257812 -99.648438 23.300781 -100.46875 26.15625 -101.03125 C 29.019531 -101.601562 31.316406 -101.796875 33.046875 -101.609375 L 39.75 -89.890625 L 38.84375 -89.15625 C 34.5 -92.675781 29.335938 -94.648438 23.359375 -95.078125 C 17.378906 -95.503906 11.414062 -94.148438 5.46875 -91.015625 C 0.195312 -88.222656 -3.957031 -84.523438 -7 -79.921875 C -10.039062 -75.328125 -11.59375 -70.066406 -11.65625 -64.140625 C -11.726562 -58.210938 -9.96875 -51.847656 -6.375 -45.046875 C -3.894531 -40.367188 -0.8125 -36.1875 2.875 -32.5 C 6.5625 -28.820312 10.695312 -25.953125 15.28125 -23.890625 C 19.875 -21.835938 24.710938 -20.847656 29.796875 -20.921875 C 34.878906 -21.003906 40.023438 -22.421875 45.234375 -25.171875 C 50.640625 -28.023438 54.617188 -31.921875 57.171875 -36.859375 C 59.734375 -41.796875 60.5625 -47.476562 59.65625 -53.90625 L 60.796875 -54.390625 L 66.0625 -40.53125 C 64.394531 -38.03125 61.617188 -35.003906 57.734375 -31.453125 C 53.847656 -27.898438 49.097656 -24.644531 43.484375 -21.6875 Z M 43.484375 -21.6875 "/></g></g><g style="fill:#ffffff;fill-opacity:1;"><g transform="translate(112.831965, 274.388847)"><path style="stroke:none" d="M 41.953125 -22.15625 C 39.953125 -21.101562 38.425781 -21.578125 37.375 -23.578125 L 27.84375 -41.609375 C 29 -37.003906 29.390625 -32.46875 29.015625 -28 C 28.640625 -23.53125 27.550781 -19.5625 25.75 -16.09375 C 23.957031 -12.632812 21.390625 -10.019531 18.046875 -8.25 C 15.578125 -6.945312 13.007812 -6.226562 10.34375 -6.09375 C 7.675781 -5.96875 5.179688 -6.53125 2.859375 -7.78125 C 0.546875 -9.039062 -1.367188 -11.101562 -2.890625 -13.96875 C -4.722656 -17.445312 -5.1875 -20.828125 -4.28125 -24.109375 C -3.375 -27.398438 -1.570312 -30.65625 1.125 -33.875 C 3.820312 -37.101562 6.851562 -40.296875 10.21875 -43.453125 L 21.390625 -53.8125 C 18.546875 -58.539062 15.3125 -61.425781 11.6875 -62.46875 C 8.070312 -63.507812 4.128906 -62.898438 -0.140625 -60.640625 C -3.140625 -59.054688 -5.675781 -56.796875 -7.75 -53.859375 C -9.832031 -50.921875 -11.332031 -47.242188 -12.25 -42.828125 L -13.5625 -43.15625 C -12.570312 -48.21875 -10.789062 -52.726562 -8.21875 -56.6875 C -5.65625 -60.644531 -2.207031 -63.769531 2.125 -66.0625 C 8.195312 -69.269531 13.503906 -70.046875 18.046875 -68.390625 C 22.597656 -66.734375 26.375 -63.070312 29.375 -57.40625 L 39.953125 -37.359375 C 42.109375 -33.296875 43.875 -30.644531 45.25 -29.40625 C 46.625 -28.164062 48.195312 -27.71875 49.96875 -28.0625 L 50.65625 -26.765625 Z M 3.140625 -20.734375 C 4.859375 -17.460938 7.148438 -15.492188 10.015625 -14.828125 C 12.890625 -14.171875 15.765625 -14.601562 18.640625 -16.125 C 21.304688 -17.53125 23.328125 -19.554688 24.703125 -22.203125 C 26.085938 -24.847656 26.910156 -27.78125 27.171875 -31 C 27.429688 -34.21875 27.253906 -37.457031 26.640625 -40.71875 C 26.035156 -43.976562 25.046875 -46.910156 23.671875 -49.515625 L 22.1875 -52.328125 L 22.078125 -52.515625 L 11.25 -42.453125 C 9.132812 -40.472656 7.179688 -38.304688 5.390625 -35.953125 C 3.609375 -33.597656 2.425781 -31.15625 1.84375 -28.625 C 1.257812 -26.101562 1.691406 -23.472656 3.140625 -20.734375 Z M 3.140625 -20.734375 "/></g></g><g style="fill:#ffffff;fill-opacity:1;"><g transform="translate(165.899024, 246.359656)"><path style="stroke:none" d="M 3.203125 -1.6875 L 2.515625 -2.984375 C 3.804688 -4.265625 4.332031 -5.820312 4.09375 -7.65625 C 3.851562 -9.5 2.65625 -12.453125 0.5 -16.515625 L -11.671875 -39.5625 C -12.898438 -41.894531 -13.972656 -43.566406 -14.890625 -44.578125 C -15.804688 -45.585938 -16.691406 -46.207031 -17.546875 -46.4375 C -18.410156 -46.675781 -19.410156 -46.742188 -20.546875 -46.640625 L -21.125 -47.75 L -12.75 -58.328125 L -11.484375 -58.109375 L -4.875 -45.59375 C -5.09375 -47.9375 -4.988281 -50.285156 -4.5625 -52.640625 C -4.144531 -55.003906 -3.484375 -57.113281 -2.578125 -58.96875 C -1.640625 -60.914062 -0.421875 -62.691406 1.078125 -64.296875 C 2.578125 -65.898438 4.53125 -67.335938 6.9375 -68.609375 C 8.9375 -69.660156 10.644531 -70.257812 12.0625 -70.40625 C 13.476562 -70.550781 14.414062 -70.191406 14.875 -69.328125 C 15.4375 -68.265625 15.5625 -66.773438 15.25 -64.859375 C 14.9375 -62.941406 13.875 -61.503906 12.0625 -60.546875 C 10.726562 -59.847656 8.910156 -59.207031 6.609375 -58.625 C 4.304688 -58.050781 1.457031 -57.425781 -1.9375 -56.75 C -2.507812 -55.582031 -2.953125 -54.039062 -3.265625 -52.125 C -3.578125 -50.207031 -3.640625 -48.226562 -3.453125 -46.1875 C -3.273438 -44.15625 -2.835938 -42.300781 -2.140625 -40.625 L -2.234375 -40.578125 L 8.296875 -20.640625 C 10.453125 -16.578125 12.21875 -13.925781 13.59375 -12.6875 C 14.96875 -11.445312 16.550781 -11 18.34375 -11.34375 L 19.03125 -10.046875 Z M 3.203125 -1.6875 "/></g></g><g style="fill:#ffffff;fill-opacity:1;"><g transform="translate(207.952167, 224.147843)"><path style="stroke:none" d="M 19.453125 -9 C 16.316406 -7.34375 13.273438 -7.125 10.328125 -8.34375 C 7.378906 -9.5625 4.53125 -12.769531 1.78125 -17.96875 L -16.890625 -53.328125 L -23.296875 -49.9375 L -24.046875 -51.328125 L -17.734375 -70.4375 L -16.328125 -71.171875 L -9.828125 -58.84375 L 5.390625 -66.875 L 5.640625 -65.234375 L -9.078125 -57.453125 L 9.59375 -22.09375 C 11.394531 -18.6875 13.320312 -16.609375 15.375 -15.859375 C 17.4375 -15.117188 19.535156 -15.3125 21.671875 -16.4375 C 23.078125 -17.175781 24.410156 -18.367188 25.671875 -20.015625 C 26.929688 -21.660156 27.890625 -23.898438 28.546875 -26.734375 L 29.921875 -26.296875 C 29.085938 -22.691406 27.867188 -19.296875 26.265625 -16.109375 C 24.660156 -12.921875 22.390625 -10.550781 19.453125 -9 Z M 19.453125 -9 "/></g></g><g style="fill:#ffffff;fill-opacity:1;"><g transform="translate(242.395689, 205.955313)"><path style="stroke:none" d="M 3.203125 -1.6875 L 2.515625 -2.984375 C 3.804688 -4.265625 4.332031 -5.820312 4.09375 -7.65625 C 3.851562 -9.5 2.65625 -12.453125 0.5 -16.515625 L -11.671875 -39.5625 C -12.898438 -41.894531 -13.957031 -43.578125 -14.84375 -44.609375 C -15.726562 -45.640625 -16.613281 -46.257812 -17.5 -46.46875 C -18.394531 -46.6875 -19.410156 -46.742188 -20.546875 -46.640625 L -21.125 -47.75 L -12.65625 -58.390625 L -11.484375 -58.109375 L 8.296875 -20.640625 C 10.453125 -16.578125 12.234375 -13.9375 13.640625 -12.71875 C 15.054688 -11.5 16.625 -11.039062 18.34375 -11.34375 L 19.03125 -10.046875 Z M -28 -65.125 C -28.851562 -66.726562 -29.023438 -68.34375 -28.515625 -69.96875 C -28.015625 -71.601562 -26.992188 -72.828125 -25.453125 -73.640625 C -23.847656 -74.492188 -22.242188 -74.660156 -20.640625 -74.140625 C -19.046875 -73.617188 -17.820312 -72.554688 -16.96875 -70.953125 C -16.195312 -69.484375 -16.050781 -67.914062 -16.53125 -66.25 C -17.019531 -64.582031 -18.035156 -63.34375 -19.578125 -62.53125 C -21.117188 -61.71875 -22.710938 -61.578125 -24.359375 -62.109375 C -26.015625 -62.648438 -27.226562 -63.65625 -28 -65.125 Z M -28 -65.125 "/></g></g><g style="fill:#ffffff;fill-opacity:1;"><g transform="translate(264.924176, 194.056119)"><path style="stroke:none" d="M 3.90625 -2.0625 L 3.21875 -3.359375 C 4.5 -4.640625 5.019531 -6.195312 4.78125 -8.03125 C 4.550781 -9.875 3.359375 -12.828125 1.203125 -16.890625 L -17.421875 -52.15625 L -23.25 -49.078125 L -23.484375 -50.734375 L -18.15625 -53.546875 C -19.9375 -57.378906 -20.882812 -61.46875 -21 -65.8125 C -21.113281 -70.15625 -20.476562 -74.421875 -19.09375 -78.609375 C -17.71875 -82.796875 -15.625 -86.632812 -12.8125 -90.125 C -10.007812 -93.613281 -6.570312 -96.429688 -2.5 -98.578125 C 2.039062 -100.972656 4.769531 -101.300781 5.6875 -99.5625 C 6 -98.96875 6.128906 -98.078125 6.078125 -96.890625 C 6.023438 -95.710938 5.707031 -94.5 5.125 -93.25 C 4.539062 -92.007812 3.546875 -91.019531 2.140625 -90.28125 C -0.128906 -89.082031 -2.566406 -88.195312 -5.171875 -87.625 C -7.773438 -87.050781 -10.773438 -86.507812 -14.171875 -86 C -14.992188 -84.800781 -15.78125 -83.253906 -16.53125 -81.359375 C -17.28125 -79.472656 -17.519531 -77.101562 -17.25 -74.25 C -16.988281 -71.40625 -15.75 -67.878906 -13.53125 -63.671875 L -10.359375 -57.65625 L 2.75 -64.59375 L 2.890625 -62.890625 L -9.625 -56.265625 L 9 -21 C 11.15625 -16.9375 12.921875 -14.285156 14.296875 -13.046875 C 15.671875 -11.816406 17.253906 -11.375 19.046875 -11.71875 L 19.734375 -10.421875 Z M 3.90625 -2.0625 "/></g></g><g style="fill:#ffffff;fill-opacity:1;"><g transform="translate(295.362611, 177.979014)"><path style="stroke:none" d="M 13.203125 17.75 C 11.304688 18.832031 9.554688 19.429688 7.953125 19.546875 C 6.359375 19.660156 5.351562 19.320312 4.9375 18.53125 C 4.570312 17.851562 4.4375 16.957031 4.53125 15.84375 C 4.625 14.726562 4.957031 13.59375 5.53125 12.4375 C 6.113281 11.28125 7.007812 10.382812 8.21875 9.75 C 9.550781 9.039062 11.570312 8.332031 14.28125 7.625 C 16.988281 6.914062 19.578125 6.164062 22.046875 5.375 C 22.972656 2.925781 23.597656 0.148438 23.921875 -2.953125 C 24.242188 -6.066406 24.351562 -9.269531 24.25 -12.5625 L -12.546875 -42.4375 C -16.054688 -45.363281 -18.804688 -47.171875 -20.796875 -47.859375 C -22.785156 -48.554688 -24.441406 -48.859375 -25.765625 -48.765625 L -26.453125 -50.0625 L -11.34375 -58.046875 L -10.65625 -56.75 C -11.863281 -55.507812 -11.972656 -54.273438 -10.984375 -53.046875 C -9.992188 -51.828125 -7.707031 -49.769531 -4.125 -46.875 L 23.3125 -24.734375 L 20.5 -59.890625 C 20.175781 -63.898438 19.503906 -66.703125 18.484375 -68.296875 C 17.460938 -69.898438 16 -70.40625 14.09375 -69.8125 L 13.40625 -71.109375 L 24.515625 -76.984375 L 25.203125 -75.6875 C 24.054688 -74.476562 23.160156 -72.828125 22.515625 -70.734375 C 21.867188 -68.648438 21.703125 -65.300781 22.015625 -60.6875 L 25.40625 -16.625 C 25.851562 -10.613281 25.78125 -5.578125 25.1875 -1.515625 C 24.601562 2.546875 23.671875 5.832031 22.390625 8.34375 C 21.117188 10.851562 19.671875 12.832031 18.046875 14.28125 C 16.421875 15.738281 14.804688 16.894531 13.203125 17.75 Z M 13.203125 17.75 "/></g></g></g></g></g></svg>