<svg xmlns="http://www.w3.org/2000/svg" xmlns:xlink="http://www.w3.org/1999/xlink" width="500" zoomAndPan="magnify" viewBox="0 0 375 374.999991" height="500" preserveAspectRatio="xMidYMid meet" version="1.2"><defs/><g id="06d2908a3e"><path style=" stroke:none;fill-rule:nonzero;fill:#100f0d;fill-opacity:1;" d="M 308.945312 147.605469 C 316.203125 143.574219 321.0625 138.015625 326.851562 132.273438 C 332.636719 126.535156 333.726562 117.878906 333.035156 110.019531 C 332.476562 103.679688 328.875 95.222656 325.351562 89.777344 C 321.230469 83.410156 316.988281 79.714844 310.984375 74.824219 C 300.246094 66.082031 284.832031 63.269531 270.835938 65.773438 C 256.84375 68.277344 244.222656 75.644531 234.058594 84.96875 C 231.675781 87.15625 229.277344 89.726562 229.097656 92.84375 C 228.917969 95.957031 232.265625 99.265625 235.351562 98.070312 C 239.347656 87.648438 237.824219 67.65625 230.242188 59.144531 C 222.65625 50.640625 210.035156 43.820312 194.011719 41.035156 C 153.914062 34.058594 120.167969 65.417969 119.890625 98.085938 C 119.855469 102.792969 120.605469 109.707031 125.414062 108.355469 C 126.929688 106.734375 124.550781 104.472656 122.464844 103.554688 C 103.292969 95.101562 81.578125 86.539062 61.648438 93.28125 C 41.714844 100.027344 24.203125 122.605469 20.019531 142.015625 C 15.835938 161.417969 25.28125 183.261719 43.785156 192.921875 C 47.425781 194.820312 52.230469 196.167969 55.539062 193.800781 C 52.484375 188.859375 44.398438 189.746094 39.164062 192.695312 C 29.496094 198.136719 20.847656 208.511719 17.972656 218.707031 C 15.101562 228.902344 14.246094 236.125 14.996094 247.96875 C 15.347656 253.585938 17.683594 261.105469 20.5625 266.050781 C 23.210938 270.59375 26.882812 276.332031 31.414062 279.3125 C 40.96875 285.609375 51.792969 289.421875 63.089844 292.246094 C 74.390625 295.070312 87.65625 293.621094 95.835938 285.816406 C 98.164062 283.597656 99.972656 279.894531 97.769531 277.570312 C 94.40625 274.023438 88.621094 279.101562 87.28125 283.667969 C 82.476562 300.027344 89.304688 318.554688 103.128906 329.5625 C 116.957031 340.570312 136.894531 344.039062 154.40625 339.515625 C 162.613281 337.402344 170.671875 333.367188 175.214844 326.644531 C 179.757812 319.921875 182.128906 302.980469 173.59375 304.683594 C 169.203125 308.242188 168.359375 314.574219 170.28125 319.699219 C 172.203125 324.816406 176.375 328.917969 180.804688 332.429688 C 198.402344 346.398438 223.738281 353.4375 245.261719 345.613281 C 266.789062 337.789062 280.71875 312.519531 270.605469 293.128906 C 270.210938 292.371094 269.777344 291.617188 269.140625 291.019531 C 265.980469 288.046875 259.894531 291.382812 259.65625 295.566406 C 259.414062 299.75 263 303.320312 266.914062 305.367188 C 276.640625 310.457031 289.128906 309.117188 298.921875 304.144531 C 308.710938 299.171875 316.214844 291.042969 322.671875 282.5625 C 329.292969 273.863281 335.214844 264.148438 335.90625 253.5 C 336.597656 242.851562 330.644531 231.199219 319.8125 227.820312 C 316.609375 226.820312 312.425781 226.882812 310.597656 229.53125 C 308.527344 232.523438 311.3125 236.820312 315.007812 237.695312 C 318.699219 238.574219 322.5625 237.011719 325.710938 235.003906 C 337.179688 227.699219 343.105469 214.433594 343.730469 201.488281 C 344.359375 188.535156 340.335938 175.777344 335.335938 163.6875 C 330.277344 151.464844 322.234375 138.136719 308.425781 135.785156 C 304.332031 135.089844 300.984375 138.5 299.246094 142.03125 C 297.503906 145.5625 306.164062 150.496094 308.945312 147.605469 "/><path style=" stroke:none;fill-rule:nonzero;fill:#100f0d;fill-opacity:1;" d="M 323.378906 136.097656 C 328.695312 133.03125 333.1875 129.011719 337.496094 124.679688 C 341.511719 120.648438 345.300781 116.964844 347.144531 111.4375 C 350.730469 100.683594 347.964844 89.113281 342.878906 79.363281 C 332.125 58.753906 309.339844 46.878906 286.390625 49.929688 C 274.367188 51.527344 263.03125 56.761719 253.34375 63.960938 C 249.105469 67.113281 243.761719 70.773438 241.375 75.648438 C 239.472656 79.539062 240.414062 84.429688 244.59375 86.429688 C 254 90.925781 253.191406 72.171875 252.867188 67.238281 C 252.28125 58.226562 249.957031 49.011719 243.402344 42.484375 C 227.972656 27.117188 202.496094 21.496094 181.613281 26.171875 C 162.160156 30.527344 144.722656 44.089844 136.339844 62.265625 C 132.53125 70.527344 130.082031 80.339844 131.40625 89.472656 C 131.855469 92.582031 133.03125 96.484375 136.582031 97.203125 C 140.417969 97.980469 142.574219 94.425781 140.464844 91.261719 C 139.160156 89.304688 137.003906 88.394531 134.929688 87.488281 C 131.871094 86.152344 128.800781 84.847656 125.703125 83.609375 C 119.15625 80.988281 112.460938 78.660156 105.5625 77.148438 C 93.367188 74.472656 80.714844 74.605469 69.25 79.96875 C 50.375 88.808594 34.285156 109.609375 30.902344 130.253906 C 27.601562 150.394531 37.941406 172.589844 56.570312 181.664062 C 60.84375 183.742188 65.671875 184.84375 69.972656 182.292969 C 70.894531 181.746094 71.421875 180.3125 70.738281 179.367188 C 66.667969 173.710938 59.140625 174.011719 53.28125 176.59375 C 45.40625 180.054688 38.652344 187.046875 34.105469 194.207031 C 25.265625 208.125 23.296875 229.503906 28.316406 245.074219 C 30.769531 252.6875 35.257812 260.75 41.367188 266.039062 C 48.269531 272.015625 57.929688 275.578125 66.515625 278.316406 C 75.054688 281.039062 83.75 283.175781 92.757812 281.988281 C 100.0625 281.027344 109.238281 277.773438 113.0625 270.933594 C 116.039062 265.605469 112.074219 259.011719 105.796875 261.453125 C 98.804688 264.167969 97.285156 272.824219 97 279.394531 C 96.28125 296.042969 105.578125 312.03125 119.414062 320.929688 C 133.996094 330.316406 152.972656 332.570312 169.5625 327.894531 C 183.675781 323.917969 195.804688 313.324219 194.773438 297.574219 C 194.5 293.390625 192.214844 288.140625 187.066406 289.167969 C 180.636719 290.453125 179.789062 300.953125 181.226562 305.871094 C 183.636719 314.09375 191.25 319.996094 198.0625 324.554688 C 205.488281 329.53125 213.847656 333.277344 222.515625 335.464844 C 238.589844 339.523438 256.925781 338.273438 270.625 328.21875 C 282.027344 319.839844 290.460938 305.835938 289.375 291.332031 C 288.980469 286.03125 287.140625 275.625 280.714844 274.507812 C 274.199219 273.375 269.3125 280.171875 271.53125 286.046875 C 274.277344 293.3125 283.492188 296.4375 290.503906 297.171875 C 299.226562 298.085938 308.113281 295.738281 315.664062 291.386719 C 323.699219 286.753906 330.261719 279.96875 335.96875 272.746094 C 341.726562 265.453125 347.242188 257.539062 349.898438 248.523438 C 354 234.59375 348.625 215.765625 332.746094 212.136719 C 327.039062 210.832031 318.710938 213.953125 321.707031 221.191406 C 324.925781 228.960938 334.496094 227.046875 340.144531 223.496094 C 355.058594 214.132812 360.742188 195.605469 358.917969 178.816406 C 357.824219 168.746094 354.613281 159.085938 350.75 149.761719 C 347.800781 142.644531 344.207031 135.644531 338.941406 129.9375 C 334.421875 125.03125 326.730469 119.417969 319.625 120.296875 C 314.695312 120.90625 307.878906 127.535156 311.242188 132.667969 C 313.765625 136.515625 319.984375 138.863281 323.8125 135.761719 C 325.953125 134.027344 322.90625 131.015625 320.789062 132.738281 C 319.347656 133.902344 315.375 131.675781 314.808594 130.242188 C 313.488281 126.917969 319.878906 124.226562 322.316406 124.710938 C 328.035156 125.839844 332.894531 129.460938 336.644531 133.777344 C 344.929688 143.300781 349.703125 156.734375 352.757812 168.777344 C 356.132812 182.074219 356.140625 196.496094 348.839844 208.53125 C 345.523438 214 340.210938 219.789062 333.953125 221.824219 C 331.980469 222.46875 329.417969 222.871094 327.539062 221.707031 C 325.597656 220.503906 324.636719 218.050781 326.855469 216.589844 C 329.460938 214.871094 333.789062 216.746094 336.15625 218.085938 C 348.316406 224.964844 349.03125 240.609375 344.027344 252.132812 C 338.777344 264.230469 329.222656 276.300781 318.683594 284.238281 C 308.183594 292.152344 291.722656 297.191406 279.777344 289.238281 C 277.015625 287.398438 273.273438 283.351562 276.328125 280.171875 C 280.082031 276.265625 282.566406 281.257812 283.699219 284.582031 C 285.410156 289.597656 285.578125 295.011719 284.503906 300.183594 C 282.253906 310.953125 275.027344 320.515625 265.792969 326.347656 C 255.035156 333.136719 241.542969 334.589844 229.171875 332.503906 C 216.421875 330.351562 204.046875 324.667969 194.15625 316.320312 C 189.105469 312.058594 183.839844 306.207031 184.972656 299.078125 C 185.230469 297.464844 186.769531 292.085938 189.242188 293.75 C 190.542969 294.625 190.519531 297.433594 190.523438 298.75 C 190.617188 326.816406 151.867188 329.523438 132.207031 322.484375 C 120.082031 318.144531 109.898438 309.328125 104.707031 297.445312 C 102.238281 291.789062 101.011719 285.5625 101.277344 279.394531 C 101.398438 276.59375 101.734375 273.535156 102.699219 270.882812 C 103.21875 269.445312 103.992188 268.140625 105.082031 267.054688 C 105.652344 266.488281 106.355469 265.664062 107.195312 265.535156 C 109.183594 265.226562 110.339844 266.839844 109.371094 268.777344 C 106.621094 274.257812 98.386719 276.863281 92.820312 277.695312 C 86.058594 278.707031 79.488281 277.570312 72.972656 275.769531 C 66.085938 273.863281 59.300781 271.503906 52.9375 268.238281 C 46.363281 264.863281 41.585938 260.9375 37.605469 254.664062 C 23.789062 232.863281 28.734375 198.179688 50.421875 183.179688 C 54.519531 180.339844 63.152344 176.113281 67.046875 181.523438 C 67.304688 180.550781 67.558594 179.574219 67.816406 178.597656 C 61.941406 182.078125 53.515625 175.339844 49.332031 171.527344 C 44.914062 167.5 41.367188 162.601562 38.832031 157.191406 C 33.59375 146.011719 33.339844 133.5 37.558594 121.96875 C 41.910156 110.09375 49.882812 99.226562 59.613281 91.199219 C 71.046875 81.769531 84.832031 78.097656 99.492188 80.34375 C 107.164062 81.519531 114.605469 83.898438 121.835938 86.664062 C 125.519531 88.074219 129.152344 89.605469 132.769531 91.183594 C 133.246094 91.390625 136.582031 93.179688 136.863281 92.65625 C 136.765625 92.835938 135.519531 88.09375 135.511719 88.027344 C 134.425781 77.324219 138.257812 66.148438 143.976562 57.238281 C 157.164062 36.691406 182.144531 25.746094 206.183594 29.640625 C 219.195312 31.746094 235.042969 37.324219 243.0625 48.558594 C 249.746094 57.914062 250.472656 73.578125 246.644531 84.144531 C 247.140625 83.648438 247.640625 83.152344 248.136719 82.652344 C 245.078125 83.355469 244.273438 79.257812 245.320312 77.285156 C 245.992188 76.023438 247.035156 74.964844 248.035156 73.96875 C 250.332031 71.679688 252.910156 69.589844 255.503906 67.65625 C 260.0625 64.253906 264.972656 61.300781 270.164062 58.980469 C 280.988281 54.140625 293.253906 52.296875 304.917969 54.789062 C 325.691406 59.230469 345.128906 80.128906 344.410156 102.046875 C 344.179688 109.09375 341.703125 114.359375 336.792969 119.3125 C 331.964844 124.175781 327.203125 128.949219 321.222656 132.402344 C 318.835938 133.777344 320.988281 137.476562 323.378906 136.097656 "/><path style=" stroke:none;fill-rule:nonzero;fill:#100f0d;fill-opacity:1;" d="M 263.113281 74.121094 C 277.886719 61.640625 300.402344 57.105469 318.339844 65.265625 C 326.875 69.144531 334.21875 76.199219 335.25 85.929688 C 336.457031 97.378906 330.027344 107.722656 324.277344 117.046875 C 323.542969 118.238281 325.414062 119.324219 326.144531 118.140625 C 332.351562 108.078125 339.074219 96.875 337.230469 84.539062 C 335.820312 75.09375 328.796875 67.972656 320.488281 63.898438 C 301.503906 54.570312 277.410156 59.222656 261.585938 72.59375 C 260.519531 73.492188 262.054688 75.015625 263.113281 74.121094 "/><path style=" stroke:none;fill-rule:nonzero;fill:#100f0d;fill-opacity:1;" d="M 142.625 80.75 C 142.414062 58.085938 167.304688 42.183594 187.273438 38.347656 C 207.441406 34.46875 227.746094 43.785156 241.558594 58.179688 C 242.527344 59.183594 244.054688 57.652344 243.089844 56.648438 C 228.371094 41.3125 206.65625 31.84375 185.3125 36.546875 C 164.820312 41.058594 140.246094 57.484375 140.460938 80.75 C 140.472656 82.140625 142.636719 82.144531 142.625 80.75 "/><path style=" stroke:none;fill-rule:nonzero;fill:#100f0d;fill-opacity:1;" d="M 55.585938 166.496094 C 41.527344 150.195312 45.5 124.1875 58.636719 108.414062 C 64.613281 101.234375 72.726562 95.644531 81.867188 93.714844 C 92.804688 91.402344 104.082031 92.746094 114.984375 94.5625 C 116.347656 94.789062 116.929688 92.707031 115.558594 92.476562 C 104.019531 90.554688 92.148438 89.179688 80.59375 91.777344 C 70.984375 93.933594 62.144531 100.277344 56.152344 108.082031 C 43.148438 125.015625 39.402344 151.035156 54.054688 168.027344 C 54.964844 169.082031 56.488281 167.546875 55.585938 166.496094 "/><path style=" stroke:none;fill-rule:nonzero;fill:#100f0d;fill-opacity:1;" d="M 49.726562 188.847656 C 42.066406 196.195312 37.058594 206.003906 36.324219 216.667969 C 35.925781 222.457031 37.003906 228.199219 38.355469 233.800781 C 39.625 239.054688 41.152344 244.347656 43.835938 249.082031 C 53.109375 265.445312 73.304688 273.585938 91.480469 270.625 C 92.851562 270.402344 92.269531 268.316406 90.90625 268.542969 C 73.691406 271.34375 54.460938 263.453125 45.703125 247.992188 C 40.917969 239.535156 38.066406 227.609375 38.421875 217.929688 C 38.808594 207.378906 43.699219 197.621094 51.257812 190.378906 C 52.265625 189.414062 50.734375 187.882812 49.726562 188.847656 "/><path style=" stroke:none;fill-rule:nonzero;fill:#100f0d;fill-opacity:1;" d="M 108.140625 280.984375 C 104.746094 297.710938 117.476562 311.683594 132.160156 317.421875 C 146.621094 323.074219 168.234375 325.335938 180.730469 314.21875 C 181.773438 313.292969 180.242188 311.769531 179.203125 312.691406 C 167.925781 322.722656 148.476562 320.707031 135.214844 316.238281 C 120.730469 311.355469 106.859375 298.152344 110.226562 281.558594 C 110.5 280.199219 108.414062 279.617188 108.140625 280.984375 "/><path style=" stroke:none;fill-rule:nonzero;fill:#100f0d;fill-opacity:1;" d="M 198.269531 312.878906 C 207.335938 327.410156 225.960938 329.054688 241.472656 328.9375 C 249.617188 328.878906 256.492188 327.890625 262.996094 322.628906 C 268.839844 317.898438 275.515625 311.75 277.933594 304.433594 C 278.367188 303.109375 276.28125 302.542969 275.847656 303.859375 C 273.640625 310.542969 267.289062 316.289062 261.972656 320.691406 C 255.382812 326.140625 248.300781 326.773438 240.019531 326.785156 C 225.738281 326.800781 208.476562 325.15625 200.136719 311.789062 C 199.402344 310.609375 197.527344 311.695312 198.269531 312.878906 "/><path style=" stroke:none;fill-rule:nonzero;fill:#100f0d;fill-opacity:1;" d="M 337.433594 231.5625 C 342.457031 242.992188 334.839844 256.140625 327.878906 265.0625 C 320.777344 274.152344 310.300781 278.835938 299.980469 283.308594 C 298.707031 283.859375 299.804688 285.722656 301.070312 285.171875 C 312.945312 280.03125 324.03125 274.558594 331.589844 263.648438 C 338.164062 254.152344 344.351562 241.960938 339.300781 230.46875 C 338.742188 229.199219 336.875 230.300781 337.433594 231.5625 "/><path style=" stroke:none;fill-rule:nonzero;fill:#100f0d;fill-opacity:1;" d="M 328.796875 139.726562 C 335.773438 148.21875 342.523438 157.359375 344.160156 168.519531 C 345.875 180.246094 342.347656 192 337.597656 202.609375 C 337.035156 203.867188 338.894531 204.96875 339.464844 203.699219 C 344.417969 192.636719 348.082031 180.460938 346.308594 168.230469 C 344.613281 156.585938 337.605469 147.058594 330.324219 138.195312 C 329.441406 137.121094 327.917969 138.660156 328.796875 139.726562 "/><g style="fill:#ffffff;fill-opacity:1;"><g transform="translate(61.871955, 274.120369)"><path style="stroke:none" d="M 34.703125 -17.3125 C 28.578125 -14.070312 22.6875 -12.351562 17.03125 -12.15625 C 11.382812 -11.96875 6.226562 -13.285156 1.5625 -16.109375 C -3.09375 -18.929688 -6.953125 -23.242188 -10.015625 -29.046875 C -12.273438 -33.304688 -13.582031 -37.640625 -13.9375 -42.046875 C -14.289062 -46.453125 -13.75 -50.753906 -12.3125 -54.953125 C -10.882812 -59.148438 -8.601562 -63.015625 -5.46875 -66.546875 C -2.332031 -70.085938 1.578125 -73.097656 6.265625 -75.578125 C 8.566406 -76.785156 11.003906 -77.8125 13.578125 -78.65625 C 16.160156 -79.507812 18.59375 -80.160156 20.875 -80.609375 C 23.15625 -81.066406 24.988281 -81.210938 26.375 -81.046875 L 31.703125 -71.71875 L 30.984375 -71.140625 C 27.535156 -73.953125 23.421875 -75.523438 18.640625 -75.859375 C 13.867188 -76.191406 9.109375 -75.109375 4.359375 -72.609375 C 0.148438 -70.378906 -3.160156 -67.429688 -5.578125 -63.765625 C -8.003906 -60.109375 -9.242188 -55.914062 -9.296875 -51.1875 C -9.359375 -46.457031 -7.957031 -41.375 -5.09375 -35.9375 C -3.125 -32.207031 -0.664062 -28.875 2.28125 -25.9375 C 5.238281 -23 8.546875 -20.707031 12.203125 -19.0625 C 15.867188 -17.425781 19.726562 -16.640625 23.78125 -16.703125 C 27.832031 -16.765625 31.9375 -17.890625 36.09375 -20.078125 C 40.40625 -22.359375 43.582031 -25.46875 45.625 -29.40625 C 47.664062 -33.351562 48.316406 -37.890625 47.578125 -43.015625 L 48.5 -43.40625 L 52.71875 -32.34375 C 51.375 -30.34375 49.15625 -27.925781 46.0625 -25.09375 C 42.96875 -22.269531 39.179688 -19.675781 34.703125 -17.3125 Z M 34.703125 -17.3125 "/></g></g><g style="fill:#ffffff;fill-opacity:1;"><g transform="translate(121.072074, 242.851791)"><path style="stroke:none" d="M 33.46875 -17.6875 C 31.882812 -16.84375 30.671875 -17.21875 29.828125 -18.8125 L 22.234375 -33.1875 C 23.140625 -29.519531 23.441406 -25.898438 23.140625 -22.328125 C 22.847656 -18.765625 21.984375 -15.601562 20.546875 -12.84375 C 19.109375 -10.082031 17.0625 -8 14.40625 -6.59375 C 12.4375 -5.550781 10.382812 -4.976562 8.25 -4.875 C 6.125 -4.78125 4.132812 -5.226562 2.28125 -6.21875 C 0.425781 -7.207031 -1.101562 -8.847656 -2.3125 -11.140625 C -3.769531 -13.898438 -4.132812 -16.597656 -3.40625 -19.234375 C -2.6875 -21.867188 -1.253906 -24.46875 0.890625 -27.03125 C 3.046875 -29.601562 5.472656 -32.148438 8.171875 -34.671875 L 17.078125 -42.953125 C 14.796875 -46.722656 12.210938 -49.019531 9.328125 -49.84375 C 6.441406 -50.664062 3.296875 -50.179688 -0.109375 -48.390625 C -2.503906 -47.117188 -4.53125 -45.3125 -6.1875 -42.96875 C -7.851562 -40.625 -9.050781 -37.691406 -9.78125 -34.171875 L -10.84375 -34.4375 C -10.03125 -38.46875 -8.601562 -42.0625 -6.5625 -45.21875 C -4.519531 -48.382812 -1.765625 -50.878906 1.703125 -52.703125 C 6.554688 -55.273438 10.789062 -55.898438 14.40625 -54.578125 C 18.03125 -53.253906 21.039062 -50.328125 23.4375 -45.796875 L 31.875 -29.8125 C 33.59375 -26.570312 35 -24.457031 36.09375 -23.46875 C 37.195312 -22.476562 38.457031 -22.117188 39.875 -22.390625 L 40.421875 -21.359375 Z M 2.484375 -16.546875 C 3.867188 -13.929688 5.707031 -12.359375 8 -11.828125 C 10.289062 -11.296875 12.582031 -11.640625 14.875 -12.859375 C 17 -13.972656 18.609375 -15.585938 19.703125 -17.703125 C 20.804688 -19.828125 21.460938 -22.171875 21.671875 -24.734375 C 21.890625 -27.296875 21.753906 -29.878906 21.265625 -32.484375 C 20.785156 -35.097656 20 -37.441406 18.90625 -39.515625 L 17.71875 -41.75 L 17.625 -41.90625 L 8.984375 -33.859375 C 7.296875 -32.285156 5.738281 -30.554688 4.3125 -28.671875 C 2.882812 -26.796875 1.9375 -24.851562 1.46875 -22.84375 C 1 -20.832031 1.335938 -18.734375 2.484375 -16.546875 Z M 2.484375 -16.546875 "/></g></g><g style="fill:#ffffff;fill-opacity:1;"><g transform="translate(163.414939, 220.486951)"><path style="stroke:none" d="M 2.5625 -1.34375 L 2.015625 -2.375 C 3.035156 -3.414062 3.445312 -4.664062 3.25 -6.125 C 3.0625 -7.582031 2.109375 -9.929688 0.390625 -13.171875 L -9.3125 -31.5625 C -10.300781 -33.425781 -11.160156 -34.757812 -11.890625 -35.5625 C -12.617188 -36.363281 -13.320312 -36.859375 -14 -37.046875 C -14.6875 -37.234375 -15.484375 -37.289062 -16.390625 -37.21875 L -16.84375 -38.09375 L -10.171875 -46.546875 L -9.15625 -46.359375 L -3.875 -36.359375 C -4.050781 -38.253906 -3.972656 -40.140625 -3.640625 -42.015625 C -3.316406 -43.890625 -2.785156 -45.566406 -2.046875 -47.046875 C -1.304688 -48.597656 -0.335938 -50.015625 0.859375 -51.296875 C 2.054688 -52.578125 3.613281 -53.722656 5.53125 -54.734375 C 7.125 -55.578125 8.488281 -56.054688 9.625 -56.171875 C 10.757812 -56.296875 11.507812 -56.015625 11.875 -55.328125 C 12.320312 -54.460938 12.421875 -53.265625 12.171875 -51.734375 C 11.921875 -50.210938 11.078125 -49.070312 9.640625 -48.3125 C 8.578125 -47.75 7.125 -47.238281 5.28125 -46.78125 C 3.445312 -46.320312 1.171875 -45.816406 -1.546875 -45.265625 C -1.992188 -44.347656 -2.34375 -43.125 -2.59375 -41.59375 C -2.84375 -40.0625 -2.894531 -38.484375 -2.75 -36.859375 C -2.601562 -35.234375 -2.25 -33.753906 -1.6875 -32.421875 L -1.765625 -32.375 L 6.625 -16.46875 C 8.34375 -13.226562 9.75 -11.113281 10.84375 -10.125 C 11.945312 -9.144531 13.210938 -8.785156 14.640625 -9.046875 L 15.1875 -8.015625 Z M 2.5625 -1.34375 "/></g></g><g style="fill:#ffffff;fill-opacity:1;"><g transform="translate(196.969664, 202.76387)"><path style="stroke:none" d="M 15.515625 -7.171875 C 13.015625 -5.847656 10.585938 -5.671875 8.234375 -6.640625 C 5.878906 -7.617188 3.609375 -10.1875 1.421875 -14.34375 L -13.484375 -42.5625 L -18.59375 -39.859375 L -19.1875 -40.96875 L -14.15625 -56.203125 L -13.03125 -56.78125 L -7.84375 -46.953125 L 4.296875 -53.375 L 4.484375 -52.046875 L -7.25 -45.84375 L 7.65625 -17.625 C 9.09375 -14.90625 10.628906 -13.25 12.265625 -12.65625 C 13.910156 -12.070312 15.582031 -12.226562 17.28125 -13.125 C 18.394531 -13.71875 19.457031 -14.671875 20.46875 -15.984375 C 21.476562 -17.296875 22.242188 -19.070312 22.765625 -21.3125 L 23.875 -20.984375 C 23.207031 -18.109375 22.234375 -15.394531 20.953125 -12.84375 C 19.671875 -10.300781 17.859375 -8.410156 15.515625 -7.171875 Z M 15.515625 -7.171875 "/></g></g><g style="fill:#ffffff;fill-opacity:1;"><g transform="translate(224.452577, 188.247824)"><path style="stroke:none" d="M 2.5625 -1.34375 L 2.015625 -2.375 C 3.035156 -3.414062 3.445312 -4.664062 3.25 -6.125 C 3.0625 -7.582031 2.109375 -9.929688 0.390625 -13.171875 L -9.3125 -31.5625 C -10.300781 -33.425781 -11.144531 -34.765625 -11.84375 -35.578125 C -12.550781 -36.398438 -13.257812 -36.894531 -13.96875 -37.0625 C -14.675781 -37.238281 -15.484375 -37.289062 -16.390625 -37.21875 L -16.84375 -38.09375 L -10.09375 -46.578125 L -9.15625 -46.359375 L 6.625 -16.46875 C 8.34375 -13.226562 9.765625 -11.125 10.890625 -10.15625 C 12.015625 -9.1875 13.265625 -8.816406 14.640625 -9.046875 L 15.1875 -8.015625 Z M -22.328125 -51.96875 C -23.003906 -53.238281 -23.140625 -54.523438 -22.734375 -55.828125 C -22.335938 -57.128906 -21.523438 -58.101562 -20.296875 -58.75 C -19.015625 -59.425781 -17.738281 -59.554688 -16.46875 -59.140625 C -15.195312 -58.722656 -14.222656 -57.878906 -13.546875 -56.609375 C -12.929688 -55.429688 -12.816406 -54.179688 -13.203125 -52.859375 C -13.597656 -51.535156 -14.40625 -50.546875 -15.625 -49.890625 C -16.851562 -49.242188 -18.125 -49.132812 -19.4375 -49.5625 C -20.75 -49.988281 -21.710938 -50.789062 -22.328125 -51.96875 Z M -22.328125 -51.96875 "/></g></g><g style="fill:#ffffff;fill-opacity:1;"><g transform="translate(242.428336, 178.753309)"><path style="stroke:none" d="M 3.125 -1.65625 L 2.578125 -2.6875 C 3.597656 -3.71875 4.007812 -4.960938 3.8125 -6.421875 C 3.625 -7.878906 2.671875 -10.226562 0.953125 -13.46875 L -13.90625 -41.59375 L -18.546875 -39.15625 L -18.71875 -40.484375 L -14.484375 -42.71875 C -15.910156 -45.78125 -16.664062 -49.039062 -16.75 -52.5 C -16.84375 -55.96875 -16.335938 -59.367188 -15.234375 -62.703125 C -14.140625 -66.046875 -12.472656 -69.109375 -10.234375 -71.890625 C -7.992188 -74.679688 -5.25 -76.9375 -2 -78.65625 C 1.613281 -80.570312 3.789062 -80.832031 4.53125 -79.4375 C 4.78125 -78.957031 4.882812 -78.242188 4.84375 -77.296875 C 4.800781 -76.359375 4.546875 -75.390625 4.078125 -74.390625 C 3.617188 -73.398438 2.832031 -72.613281 1.71875 -72.03125 C -0.101562 -71.070312 -2.050781 -70.363281 -4.125 -69.90625 C -6.195312 -69.457031 -8.59375 -69.03125 -11.3125 -68.625 C -11.957031 -67.664062 -12.582031 -66.429688 -13.1875 -64.921875 C -13.789062 -63.421875 -13.984375 -61.53125 -13.765625 -59.25 C -13.554688 -56.976562 -12.566406 -54.164062 -10.796875 -50.8125 L -8.25 -46.015625 L 2.21875 -51.546875 L 2.3125 -50.171875 L -7.671875 -44.890625 L 7.1875 -16.765625 C 8.90625 -13.523438 10.3125 -11.410156 11.40625 -10.421875 C 12.507812 -9.441406 13.769531 -9.082031 15.1875 -9.34375 L 15.734375 -8.3125 Z M 3.125 -1.65625 "/></g></g><g style="fill:#ffffff;fill-opacity:1;"><g transform="translate(266.715541, 165.925187)"><path style="stroke:none" d="M 10.53125 14.15625 C 9.019531 15.019531 7.625 15.5 6.34375 15.59375 C 5.0625 15.695312 4.253906 15.429688 3.921875 14.796875 C 3.628906 14.253906 3.523438 13.535156 3.609375 12.640625 C 3.691406 11.753906 3.960938 10.847656 4.421875 9.921875 C 4.890625 8.992188 5.601562 8.273438 6.5625 7.765625 C 7.625 7.203125 9.234375 6.640625 11.390625 6.078125 C 13.546875 5.523438 15.613281 4.929688 17.59375 4.296875 C 18.332031 2.335938 18.828125 0.117188 19.078125 -2.359375 C 19.335938 -4.847656 19.429688 -7.394531 19.359375 -10 L -10.015625 -33.859375 C -12.816406 -36.191406 -15.007812 -37.632812 -16.59375 -38.1875 C -18.175781 -38.75 -19.492188 -38.988281 -20.546875 -38.90625 L -21.109375 -39.953125 L -9.046875 -46.328125 L -8.484375 -45.28125 C -9.453125 -44.289062 -9.546875 -43.304688 -8.765625 -42.328125 C -7.984375 -41.347656 -6.160156 -39.707031 -3.296875 -37.40625 L 18.59375 -19.734375 L 16.359375 -47.78125 C 16.085938 -50.976562 15.546875 -53.210938 14.734375 -54.484375 C 13.929688 -55.753906 12.773438 -56.160156 11.265625 -55.703125 L 10.703125 -56.75 L 19.5625 -61.4375 L 20.125 -60.390625 C 19.195312 -59.429688 18.472656 -58.113281 17.953125 -56.4375 C 17.441406 -54.769531 17.3125 -52.097656 17.5625 -48.421875 L 20.265625 -13.265625 C 20.628906 -8.472656 20.578125 -4.457031 20.109375 -1.21875 C 19.640625 2.019531 18.890625 4.640625 17.859375 6.640625 C 16.835938 8.648438 15.679688 10.234375 14.390625 11.390625 C 13.097656 12.554688 11.8125 13.476562 10.53125 14.15625 Z M 10.53125 14.15625 "/></g></g></g></svg>